/* XPM */
static char *a7ed8a7369e94f7c9e320fc0155a832aYexHbyaQMkHFyKII[] = {
/* columns rows colors chars-per-pixel */
"50 50 178 2 ",
"   c None",
".  c #00116B",
"X  c #000075",
"o  c #000B76",
"O  c #041473",
"+  c #001E77",
"@  c #061886",
"#  c #121B80",
"$  c #001B99",
"%  c #042286",
"&  c #00218D",
"*  c #04299B",
"=  c #00359E",
"-  c #003BA6",
";  c #034099",
":  c #27479A",
">  c #0F7898",
",  c #1649A2",
"<  c #1F50AD",
"1  c #2147AA",
"2  c #2A5BA8",
"3  c #3079B0",
"4  c #5F68AD",
"5  c #717CBA",
"6  c #034DCC",
"7  c #1C56C4",
"8  c #0257D5",
"9  c #1758DA",
"0  c #2F4CCE",
"q  c #3A44C8",
"w  c #2952C3",
"e  c #2847D6",
"r  c #255DD6",
"t  c #3856D2",
"y  c #316DCF",
"u  c #357EC3",
"i  c #2665D3",
"p  c #2A68D5",
"a  c #0C4EE0",
"s  c #0057E6",
"d  c #0059E6",
"f  c #1457EC",
"g  c #295CE2",
"h  c #0069E6",
"j  c #1769E3",
"k  c #0579EC",
"l  c #1E71E9",
"z  c #1766FF",
"x  c #0070F6",
"c  c #097BFE",
"v  c #1878F7",
"b  c #366CEA",
"n  c #266BF8",
"m  c #316DFB",
"M  c #297CFF",
"N  c #4A59DA",
"B  c #6D7ECC",
"V  c #6C70D1",
"C  c #4A9CAA",
"Z  c #5991A8",
"A  c #438BB3",
"S  c #4297BE",
"D  c #5A93B0",
"F  c #62A2B5",
"G  c #1383D9",
"H  c #358FDB",
"J  c #20B8DD",
"K  c #008DEB",
"L  c #019EED",
"P  c #0587FE",
"I  c #1986FE",
"U  c #0E92FE",
"Y  c #0F90F6",
"T  c #1494FF",
"R  c #1B9BFF",
"E  c #179CF8",
"W  c #288AFE",
"Q  c #289DFF",
"!  c #2394FF",
"~  c #3394FF",
"^  c #0EAEEA",
"/  c #01B4EE",
"(  c #1EB0EB",
")  c #0DA8FF",
"_  c #17A6F9",
"`  c #07B3FB",
"'  c #26A6ED",
"]  c #37BBE3",
"[  c #22A1FF",
"{  c #2BA5FF",
"}  c #2BADFF",
"|  c #30A1FF",
" . c #3AA7FB",
".. c #24B3FF",
"X. c #2BB7F7",
"o. c #3BB3F5",
"O. c #34B5FF",
"+. c #3EB8F9",
"@. c #479CC1",
"#. c #609CC1",
"$. c #729ECF",
"%. c #7B91DA",
"&. c #5DADCE",
"*. c #5EABD5",
"=. c #67B1CC",
"-. c #62A1D4",
";. c #78A5D9",
":. c #7D8FE3",
">. c #6899E6",
",. c #40A1FF",
"<. c #42B9FC",
"1. c #59BAFF",
"2. c #7BAAE0",
"3. c #7DBFEF",
"4. c #24C9DD",
"5. c #30C1DC",
"6. c #11C3E7",
"7. c #15D6E7",
"8. c #08C4F2",
"9. c #17C7F9",
"0. c #1FD9F0",
"q. c #38C0EA",
"w. c #25D4E6",
"e. c #39D0E1",
"r. c #2AC4F6",
"t. c #27CCF3",
"y. c #3CCCFF",
"u. c #35C3F8",
"i. c #28D4FF",
"p. c #35DFFF",
"a. c #33D0FF",
"s. c #2AE5FF",
"d. c #3AE7FF",
"f. c #4FCFFE",
"g. c #5DCFFF",
"h. c #49D8FF",
"j. c #57D8FF",
"k. c #65CDFF",
"l. c #7ADBFF",
"z. c #4DE6FF",
"x. c #5CE3FB",
"c. c #5DFCFF",
"v. c #60E6FF",
"b. c #6EECFE",
"n. c #6AE2FD",
"m. c #73E9FD",
"M. c #6BF2FF",
"N. c #67FAFF",
"B. c #73F4FF",
"V. c #8097B6",
"C. c #8DA6BC",
"Z. c #8C9EC3",
"A. c #8487E4",
"S. c #A89CF0",
"D. c #93AFEE",
"F. c #9BBAFA",
"G. c #A0A8E9",
"H. c #A5AFFF",
"J. c #A1ABF0",
"K. c #8CC8E4",
"L. c #9CCDEE",
"P. c #A5C1FF",
"I. c #A7CAF9",
"U. c #B6CAFF",
"Y. c #BBDEFF",
"T. c #BDD4FF",
"R. c #8FEFFF",
"E. c #95F5FF",
"W. c #A8FFFF",
"Q. c #D9EAFD",
"!. c #DDF4FF",
"~. c #E7E8FF",
"^. c #E2F3FF",
"/. c #E5FEFF",
"(. c #EBFEFF",
"). c #FFF3FF",
"_. c #F6FCFF",
"`. c #F4F4FF",
/* pixels */
"                                                                                                    ",
"                                                                                                    ",
"                                                                                                    ",
"                                                                                                    ",
"                                                                                                    ",
"                                                                                                    ",
"                                                                                                    ",
"                                                                                                    ",
"                                                                                                    ",
"                                                                                                    ",
"                                                                                                    ",
"                                                                                                    ",
"                                                                                                    ",
"                                                                                                    ",
"                                                                                                    ",
"                                                                                                    ",
"                                                                                                    ",
"                                                                                                    ",
"                                        -.l.#.D Z F =.&.@.S =.K.                                    ",
"                                    A   l.k.R.l.W.E.m.n.B.M.] > L.(.                                ",
"                                  C   f.h.u.] M.b.B.x.5.4.w.w.5.3 T.(.                              ",
"                                F   j.r.i.d.c.N.M.B.N.c.d.w.7.i.H >.Y.                              ",
"                              C.*.g.( 9.9.s.s.z.v.j.j.h.a.9.6.r.f.y 2.!.                            ",
"                              V.u G ..` / 8.t.J ] <.<.O..._ ^ ( ~ i ;.Q.                            ",
"                              Z.; ~ Y ) ` / r.] o.o.<.+.Q _ E R v = ;.(.                            ",
"                              Z.< j v T K / ..X.o.o.{ } T R R h l % ;.(.                            ",
"                                : 7 j k ! U E O.' X.} E P R x v - 2 I.                              ",
"                                U., 9 j v I I Q { E u.k U c 8 6 , I.(.                              ",
"                                  T.& g m z v W | } P T x s a * P.(.                                ",
"                                  ^.P.* g m f M ,.W P c 8 9 $ H._.                                  ",
"                                    (.F.O w b f M ,.h 8 p % S.                                      ",
"                                      ^.D.+ < r b n 6 i . G.).                                      ",
"                                        (.%.@ t e e 0 o J.`.                                        ",
"                                          ^.:.@ N q X A.~.                                          ",
"                                            ^.B O # V ~.                                            ",
"                                              (.5 4 _.                                              ",
"                                                _.~.                                                ",
"                                                                                                    ",
"                                                                                                    ",
"                                                                                                    ",
"                                                                                                    ",
"                                                                                                    ",
"                                                                                                    ",
"                                                                                                    ",
"                                                                                                    ",
"                                                                                                    ",
"                                                                                                    ",
"                                                                                                    ",
"                                                                                                    ",
"                                                                                                    "
};
