/* XPM */
static char *a212a7f2899b4f52a0c623a329e6c95aXdu75nVtZTwr6coU[] = {
/* columns rows colors chars-per-pixel */
"50 50 169 2 ",
"   c None",
".  c #000000",
"X  c #00000B",
"o  c #000215",
"O  c #000D15",
"+  c #03151C",
"@  c #181019",
"#  c #191A1E",
"$  c #280000",
"%  c #370100",
"&  c #3B1606",
"*  c #2B1E1E",
"=  c #161B22",
"-  c #221C23",
";  c #1B2125",
":  c #1F2629",
">  c #2B252B",
",  c #2B2A2C",
"<  c #262B2E",
"1  c #302221",
"2  c #2B2E32",
"3  c #2C3032",
"4  c #373133",
"5  c #363639",
"6  c #383738",
"7  c #37393D",
"8  c #3B3A3B",
"9  c #431903",
"0  c #421D09",
"q  c #411D10",
"w  c #452215",
"e  c #44271F",
"r  c #4A291D",
"t  c #50281A",
"y  c #4D2D23",
"u  c #48342E",
"i  c #5F3A2E",
"p  c #533228",
"a  c #413C3F",
"s  c #4B3D3B",
"d  c #513C36",
"f  c #533D38",
"g  c #64392F",
"h  c #774A03",
"j  c #764F1D",
"k  c #55413B",
"l  c #58423E",
"z  c #754E26",
"x  c #775124",
"c  c #785125",
"v  c #79532D",
"b  c #644135",
"n  c #6A4336",
"m  c #6B463A",
"M  c #6D483D",
"N  c #66463D",
"B  c #714535",
"V  c #754F35",
"C  c #744B3D",
"Z  c #7A4D3D",
"A  c #795239",
"S  c #3C3E41",
"D  c #423F42",
"F  c #444345",
"G  c #454648",
"H  c #4C4B4D",
"J  c #494646",
"K  c #5D4A46",
"L  c #504E4F",
"P  c #5E4B48",
"I  c #5B4642",
"U  c #4C4F50",
"Y  c #514F51",
"T  c #4C5050",
"R  c #535354",
"E  c #5A5555",
"W  c #555758",
"Q  c #595759",
"!  c #5B5A5B",
"~  c #575B5D",
"^  c #624F4D",
"/  c #754E41",
"(  c #784F42",
")  c #6D544F",
"_  c #775043",
"`  c #7A5346",
"'  c #7D564A",
"]  c #7F584C",
"[  c #6D5551",
"{  c #675957",
"}  c #695856",
"|  c #665D5C",
" . c #7E5C53",
".. c #7C6059",
"X. c #5F5F61",
"o. c #625F61",
"O. c #5B6063",
"+. c #646464",
"@. c #686668",
"#. c #676969",
"$. c #6C6B6C",
"%. c #736C6C",
"&. c #6E6F71",
"*. c #716F70",
"=. c #6E7071",
"-. c #747474",
";. c #757678",
":. c #77787A",
">. c #7C7B7C",
",. c #8B613E",
"<. c #835A46",
"1. c #885D47",
"2. c #815749",
"3. c #825A4C",
"4. c #8B5D4E",
"5. c #845C51",
"6. c #885E52",
"7. c #8B6140",
"8. c #8B614D",
"9. c #966948",
"0. c #8E6254",
"q. c #85645B",
"w. c #8E6659",
"e. c #916456",
"r. c #946954",
"t. c #9A6D57",
"y. c #91675A",
"u. c #94695B",
"i. c #996C5D",
"p. c #A17253",
"a. c #A0725B",
"s. c #8A6D66",
"d. c #966B60",
"f. c #9A6E61",
"g. c #9E7162",
"h. c #907368",
"j. c #887A70",
"k. c #897A77",
"l. c #947871",
"z. c #A27365",
"x. c #AB7766",
"c. c #AD7867",
"v. c #A47669",
"b. c #A6786A",
"n. c #AD7969",
"m. c #B27B6A",
"M. c #848384",
"N. c #888787",
"B. c #888789",
"V. c #8C8B8C",
"C. c #918282",
"Z. c #918F91",
"A. c #959595",
"S. c #989698",
"D. c #9D9C9D",
"F. c #A18F8D",
"G. c #AC9998",
"H. c #A19EA1",
"J. c #A4A3A4",
"K. c #A6A7A8",
"L. c #A9A6A8",
"P. c #ABAAAB",
"I. c #AEAEB0",
"U. c #B1AEB2",
"Y. c #B5B2B5",
"T. c #BAB7B9",
"R. c #BCB9BC",
"E. c #C4C1C4",
"W. c #CAC7CA",
/* pixels */
"                                                                                                    ",
"                                                                                                    ",
"                                                                                                    ",
"                                          D.L L.V.$.U.U.M.,                                         ",
"                                    A.N.E.D.R 2 6 < S 3 < >.T.F                                     ",
"                                  H.Y.=.-.# e _ / n ( ` g F H 5 V.V.                                ",
"                                %.L.=.. $ m f.v.i.5.z.z.i.n g - A.;.D                               ",
"                              H.M.7 & ] y.3.g.f.u.' x.z.y.6.v.6.0 1 H U.U.                          ",
"                            :.M.Q 9 i.z.u.6.1.t.u.3.c.z.u.3.x.u.6.2.%.M.Q Y                         ",
"                          N.E.:.% 3.u.f.y.5.<.9.d.' c.z.y.4.m.w.3.v.B : S.N.                        ",
"                          N.$.+.p ' i.v.w.6.<.9.u.' n.z.y.5.x.y.3.v.Z +.S.*.F                       ",
"                        J.E.;.. w.3.i.n.w.5.y.t.u.3.z.f.y.3.g.y.' z.3.r . >.>.                      ",
"                        M.-.2 N z.' i.n.y.3.z.g.y.3.g.g.u.3.z.y.] z.5.2.{ V.$.F                     ",
"                      S.D.A.F ` v.' i.n.y.3.f.g.u.3.z.y.w.3.z.y.5.u.' y.k B.:.!                     ",
"                        W.H.7 _ v.' u.z.u.3.g.g.u.] z.<.1.5.z.y.5.<.v 0.K I.D.Y                     ",
"                      D.>.+.; ` v.2.u.z.y.3.g.g.y.3.z.<.,.5.z.y.5.8.v w.y ;.+.6                     ",
"                      K.J.D.R C v.] u.g.u.' c.z.e.3.z.3.7.5.g.y.6.1.h u.{ U.D.+.                    ",
"                        N.=.; ` z.2.y.z.u.' c.z.y.3.z.<.7.6.z.u.2.h.j.k.+.V.@.8                     ",
"                      P.Y.H.W C v.3.u.z.y.3.c.z.y.3.z.<.,.5.g.u.' %.;.#.Q M.>.-.                    ",
"                      D.A.V.= ` i.` u.g.u.2.c.z.y.3.z.<.,.5.z.u.' | R Q G Y >.D                     ",
"                      J.S.>.G ` 8.z u.g.u.] c.z.u.] g.3.8.5.g.u.3.g.]  .J Z.>.!                     ",
"                      J.E.L.F ` 0.j d.a.y.5.v.g.u.3.z.6.0.3.g.u.] z.5.0.^ P.K.!                     ",
"                      A.>.+.+ ' 0.V d.p.r.3.g.g.u.] g.f.u.3.z.u.] z.3.e.p ;.*.,                     ",
"                      J.! N.-.B z.] u.p.e.3.g.g.u.3.g.g.u.3.g.u.' x.6.0.P L.L.>.                    ",
"                      S.N.J.! C v.] u.p.e.3.g.z.u.] g.g.y.5.g.y.' m.6.0.k K.J.#.                    ",
"                      S.N.$.O ` v.] u.z.u.3.g.f.u.3.g.g.u.3.z.u.' m.6.0.d -.! 8                     ",
"                      K.P.J.#.C v._ u.z.u.3.g.g.u.3.g.g.y.3.z.u.' m.4.4.} M.M.-.                    ",
"                      L.K.N.8 _ b.s.0.d.w.] f.z.y.3.z.x.y.3.z.u.' n.6.0.I A.#.F                     ",
"                      D.$.F 2 ( b.F.C.s.} [ f.f.u.3.z.c.y.' z.y.] z.3.0.f =.H F                     ",
"                      L.T.J.R / z.q.G.a.d.q.f.z.u.2.z.c.w.5.z.y.3.z.5.0.P P.J.+.                    ",
"                      D.A.#.X ` z. . .d.q.5.z.f.u.' z.c.y.' z.u.] z.3.0.f A.$.-                     ",
"                      D.D.V.U / v.3.0.s.5.3.f.f.u.3.z.n.y.5.z.y.3.z.5.w.k B.>.#.                    ",
"                      P.E.P.! Z n.] u.z.u.3.g.g.u.] z.x.y.6.f.A <.z.5.0.k J.K.$.                    ",
"                      D.K.M.o 3.m.' u.g.u.3.g.g.u.] z.c.u.3.d.x <.z.3.0.d D.M.>                     ",
"                      S.>.H + ] m.' u.u.w.3.g.g.u.3.z.z.u.3.d.c <.z.5.0.d :.Q 8                     ",
"                      K.:.-.$.Z m.] d.<.,.5.g.g.u.3.g.g.u.3.f.c <.z.5.0.^ P.H.>.                    ",
"                      D.-.S.! A m.' d.8.,.5.8.r.u.3.z.f.u.6.d.V 3.z.2.4.I L.K.$.                    ",
"                      A.V.+.. ] x.' u.8.,.0.' 9.u.3.g.g.y.3.f.6.3.b.q.l.| N.+.@                     ",
"                      J.D.>.H / z.3.u.3.,.6.u.i.u.3.g.g.y.3.z.d.' k.M.-.R Z.M.+.                    ",
"                      P.R.P.-.B b.] d.1.,.5.g.g.u.3.g.f.u.3.g.u.` +.X.X.! L.V.-.                    ",
"                      D.D.L.=.B v.] u.8.,.5.g.g.y.3.z.f.y.' z.u.] q.) ^ R -.#.+.                    ",
"                      D.D.N.7 _ v.' u.1.7.5.g.g.u.3.z.c.y.5.z.u.3.x.3.e.f ;.o.8                     ",
"                      D.M.W # _ t.] u.u.0.3.g.g.u.3.z.c.y.3.z.y.] z.3.e.d >.R F                     ",
"                        Y.P.=.g ,.1.u.z.u.] g.g.u.' z.x.w.5.z.y.5.u.` 0.P P.H.-.                    ",
"                      G.J.D.R M t.3.u.g.u.3.g.f.u.' z.n.y.3.z.y.6.<.v w.k D.B.F                     ",
"                        J.%.X ' v.' u.g.u.5.g.g.y.3.z.x.y.3.z.y.3.u.' e.k A.+.6                     ",
"                      D.:.! 7 b v.3.y.z.y.3.f.z.u.5.z.f.y.3.z.y.3.v.3.0.f -.R J                     ",
"                        P.V.E 9 5.6.f.b.f.5.b.w.` M y.x.f.6.v.f.0.w.b _ s D.D.#.                    ",
"                      H.A.~ 4 w y m ` 3.` C ] y q w y 3.` M 3.' m p r r u D.:.>                     ",
"                        :.                                                  k.                      "
};
