/* XPM */
static char *e7b41b650db248b8922149dcee5bc238CxGTauyNDn543mpS[] = {
/* columns rows colors chars-per-pixel */
"50 50 132 2 ",
"   c #1F161B",
".  c #251B22",
"X  c #291F27",
"o  c #2A2126",
"O  c #2D232A",
"+  c #30272E",
"@  c #332A2E",
"#  c #352C32",
"$  c #392F36",
"%  c #392F38",
"&  c #3A3136",
"*  c #3D333B",
"=  c #40373D",
"-  c #42393E",
";  c #413741",
":  c #453B42",
">  c #483F45",
",  c #473D48",
"<  c #493F4A",
"1  c #4A4146",
"2  c #4D434A",
"3  c #50474E",
"4  c #52494D",
"5  c #514750",
"6  c #554B52",
"7  c #584F55",
"8  c #5A5156",
"9  c #5D545A",
"0  c #60575D",
"q  c #62595D",
"w  c #655C62",
"e  c #685F65",
"r  c #695F68",
"t  c #6A6166",
"y  c #6D636A",
"u  c #70676E",
"i  c #72696E",
"p  c #756C72",
"a  c #786F75",
"s  c #7B7276",
"d  c #7D747A",
"f  c #80777D",
"g  c #837A7E",
"h  c #817780",
"j  c #857C82",
"k  c #887F84",
"l  c #8A8185",
"z  c #8D848A",
"x  c #90878D",
"c  c #948B8E",
"v  c #958C8F",
"b  c #92898E",
"n  c #918790",
"m  c #928890",
"M  c #938991",
"N  c #948B90",
"B  c #948A92",
"V  c #958B93",
"C  c #958C91",
"Z  c #968D90",
"A  c #978E91",
"S  c #968D92",
"D  c #978E93",
"F  c #968C94",
"G  c #978D95",
"H  c #958C92",
"J  c #988F94",
"K  c #988E96",
"L  c #998F97",
"P  c #988F94",
"I  c #998F98",
"U  c #999095",
"Y  c #9B9295",
"T  c #9A9196",
"R  c #9B9297",
"E  c #9C9396",
"W  c #9D9497",
"Q  c #9A9196",
"!  c #9A9098",
"~  c #9B9199",
"^  c #9C9398",
"/  c #9C929A",
"(  c #9D939B",
")  c #9D9499",
"_  c #9F9699",
"`  c #9E959A",
"'  c #9F969B",
"]  c #9E949C",
"[  c #9F959D",
"{  c #9D949A",
"}  c #A0979A",
"|  c #A0979C",
" . c #A0969E",
".. c #A1979F",
"X. c #A0979D",
"o. c #A1989B",
"O. c #A1989D",
"+. c #A2999E",
"@. c #A39A9F",
"#. c #A2999E",
"$. c #A298A0",
"%. c #A399A1",
"&. c #A49BA0",
"*. c #A49AA2",
"=. c #A59BA3",
"-. c #A59CA1",
";. c #A69DA2",
":. c #A79EA3",
">. c #A59CA2",
",. c #A89FA4",
"<. c #A89EA6",
"1. c #A99FA7",
"2. c #A89FA5",
"3. c #A99FA8",
"4. c #A9A0A5",
"5. c #AAA1A6",
"6. c #ABA2A7",
"7. c #AAA1A6",
"8. c #AAA0A8",
"9. c #ABA1A9",
"0. c #ACA3A8",
"q. c #ACA2AA",
"w. c #ADA4A9",
"e. c #AEA5AA",
"r. c #AFA6AB",
"t. c #ADA3A9",
"y. c #B0A7AC",
"u. c #B0A6AE",
"i. c #B1A7B0",
"p. c #B4ABB0",
"a. c #BBB1BA",
"s. c #C0B6BF",
/* pixels */
"f l S D S N S T &.5.e.6.5.4.4.4.+.[ ] [ d , h ( / I [ =.[ *.8./ J ^ T ^ g q b A l b ^ l l l l 8 9 k ",
"T T ^ ' O.O.' ^ T ' #.| | | | ^ ` ^ ^ ^ p , h / / / [ [ %.8.8.$.| :.+.J y > x r.+.+.:.| | ) U w r n ",
"J S S S T T D S S T W T ^ ^ T J I I F I u , h I [ [ / M / / I I b ^ ^ J w & g 6.U b J J ^ J b 6 9 l ",
"z l l k j d d f l b C b b b b b B I n I t : h I [ [ z h h h d h l l z A i = d ^ x g l x U U b 4 9 k ",
"l l f f d s i i s f j f s s g j x I n I r : d I ( F h u a a p h A l j z i 1 j o.x s k C ) ` U 6 0 n ",
"l a y s j j s i p d f s i i s g k B n I w , h I I n a u d d h j A b l b i : j o.x p g b S C b 4 0 l ",
"s y t p f f d d d d d p i p s d f n k I w 2 d ( I k d d h h z z l z z c y - f A b a k J C b S 7 w n ",
"l d d d s p s f d p i y y i p i a z j I w 2 f [ ( h h h h h z h b z l l t : g A b i k C x l b 8 w n ",
"z c Z Z b x l l z x d z g l l j n I B I u * z ^ z n n n n n n F Y N W N t * s W T b b b b o.x q 7 k ",
"d d d s p u y t 9 y t i 8 8 q 9 0 w w y r 7 k d j j j h h h d d p t q i t 2 q 9 i t t i i d d y 7 a ",
"# # @ O o o o o @ # O & o O + + X . . X + # , X # # # + + + O X o # & 1 @   O @ @ . o O o o # * % , ",
"t t t y i p s a d q 1 t i s d s k j n j h h h u r r r r r r r w w 7 * w t t t w y t t i t 8 9 w 7 9 ",
"A Q [ 4.5.e.y.y.4.y 1 d W &.&.&.[ [ 3.=.I  ./  .q.3.=.%.$.$.*.$.#.i - d 5.p.e.:.:.4.4.4.&.Y A A I F ",
"Z D R ` [ ` ` ) A 9 * s A A D ) I G I [ I / F  .( ( I I F F I ( x w & i ' T #.5.' :.&.o.4.4.` ` I I ",
"U D Z H A D D R x q 1 d b A A T I [ n ] F I z n n n B n n k n n ' t * t e.:.#.b g b b x b b z Q I V ",
"Z b z l z Z R ' b t 1 a z Y ) S M =.G $.I ^ n z B ^ ( F n j j j N t - q :.' T l t d j l l d d b I n ",
"k k h h k k I $.B 9 , a n I x ^ M ^ ' l M } b v S Y b x z g l x g t * q 4.4.z g d d d l j s s z m m ",
"I k a u u h k K B w < f n k d x z M } } S S A S Y l b v g l k l l t - t _ D g l l b A l d a d l x x ",
"a u r 0 w y h k k r ; p k p r d g f j x j k I M } g S M f l g l A q & y e.-.z z d d b z s s l v x x ",
"k k h a p a f j k a < y n p y i u u q i d h k d v x S S l z c x j 8 - i #.E z c ` Z ^ #.c j l Y V V ",
"u r r r 0 9 0 w y p < 6 t 4 8 4 6 9 5 6 r r 9 6 9 p r r y e p u 9 9 8 y i t t p u w 9 t 9 8 8 8 y y ",
"# % # % # $ % = % < = % = @ = = # $ % + # % O % O # O + @ o o O # * * - & O # # # * & # * : - - = % ",
"w w w w q q 0 0 7 q e 9 q 8 q q 0 ; y a u d p h a ; 9 u r u w r y t q t t t t 9 7 9 7 4 8 : & 7 9 8 ",
"n F / $.,.=.O.} y.L =./ -.Y A c y + k a.i.s.i.i.I O p I n 3.G <.4.#.o.4.:._ :.' v b l z c 8 2 l L L ",
"k n A E / L L L W W Y W A c Z j 0 % r M ( M J J u % a k 3.%.3.3.<.4.:.:.:.:.:.O.} O.o.@.f 4 > x } / ",
"k k A E E L A A Y A Z Y c c W l w % r n n s h f u % p k *. . .k b S S T ' ' ' S b v v A f 7 4 c @...",
"k k B v z g g f l l l Y A A W l 9 # r n k p s f p % r k =.%.k k f l z b S S b j x k g c s 8 1 k } } ",
"x x z k g f i t i f l Y W W W l 9 + w V n p f z p # r h ..k h h j l S S b z j d k f f g s 0 1 g o.o.",
"l l l l g g g g i f g A A Z A k 9 # w M c i s l i # t j I B h h k b T S z g d s f a s l s 0 1 x Z Z ",
"l l l l l l l g g g g l z z Z g 9 + w M c f g z a # y j ] k k h l S ' S z j g f f f j x f 7 4 c j g ",
"l l l g g g g f g g g k l l v l 9 @ 0 x A l c z p # t j  .F k j k x M v z l j j k l l v p 6 2 c z k ",
"l g g g g g i i f f f j l l c l q & w x } z z l s @ y k =.I k h f j l l z z j d k k k v f 8 4 A l l ",
"g l c g f g a g g g l x c v v Z w $ y l I l a I h + r k  .^ =.I ( $.I x m m m m k G m m h < 5 B x j ",
"l g f f f g i i a f g g g l z c t & t k $.[ z n u , h I =.I G k M n z M I J G I G I b x k 9 7 k v k ",
"q 4 1 - - 2 - - - - 1 1 - - 1 2 9 ; 0 e r r u u e < y w 9 , , % ; ; = ; 3 , ; < ; < > 6 w 6 7 f t q ",
"@ = 1 1 - - - 1 = = - - = & # = O # ; # + X + O # X % X # % * * % = = % % % $ * = : % % : = # ; @ O ",
"4 8 c o._ Y Z A T J J J A E Y Y D S y 2 d l l l k k M j z k s w 0 d k h f k k k k k j k n n k n k j ",
"8 q c r.r.r.0.0.2.:.O.&.@.4.@.o.0.A w * f ;.o.6.( *.&. .<.*.j 9 9 k =. . .<.&. .=.3.<.%.$.$.~ I } A ",
"t q l o.o.:.@.o.' T J S S S Z v g t q 1 p Y l l G M x l k k a 2 7 h  .}  . .} Y V L A A H G x k x j ",
"q 8 l :.o.W Y v A J J J A T Y ' Y 8 w 1 q c A A x x k j d j d 7 9 f H L L L A ^ H G L B x k k j c k ",
"8 q j #.U l j z x z z b M S W O.l t 8 1 q c _ c d g s s s j g 4 8 f c W W A Y E L b l c x l g l c k ",
"9 w j [ ^ l j l l j k l z z b ' v i q 1 q l Y l k l g k j j s 1 8 g v Y E W A c k k g k l g g l c k ",
"9 t j ^ S j d s j j j l j k b T A s q - t l v l g g g l z l d 4 8 g Z c A _ c g f f f f g g l z c k ",
"7 q j U z s y y s d j l l l z D c s q 1 t c v l s s g z b l d 7 8 g c Z Z A c s p f a f f f g l c l ",
"4 q l b j y e e t p d k j j l b l s q - i c c g g g g c z j s 4 8 s A E c l g s i f f f i f g f z g ",
"4 t l z d y t t w t a d f d f l g s q - i v c g k k l l l k d 4 q s Y E l g s g f f i i i g f f k g ",
"7 t d z j a a p y p d h j j f j l s q 1 s W c g g l l l l l h 6 q g W A l l g g f s g f t f f f g f ",
"9 y d b k k j a j j k l k l l z l s q - f o.Y l g c l l j z h 5 8 g _ Z l c c l g l l f f f f f f f ",
"w t w 7 5 2 5 5 5 5 5 5 5 6 6 5 5 5 6 9 5 5 6 5 9 9 9 5 5 5 6 9 q 8 4 4 4 8 8 4 4 4 4 8 4 8 q q w y ",
", ; ; % % ; ; ; , , , , < < , , * % ; * % % * * ; ; * % % * ; ; - - - - - - - - = = - - = - - = = = "
};
