/* XPM */
static char *b93204fa886740fbbebdffe83f7cdbcdGEGhkEBK0esBAfPv[] = {
/* columns rows colors chars-per-pixel */
"50 50 220 2 ",
"   c None",
".  c #010203",
"X  c #01040B",
"o  c #0B0D0E",
"O  c #090808",
"+  c #14050C",
"@  c #000612",
"#  c #020D16",
"$  c #000D1A",
"%  c #0E0E15",
"&  c #100E11",
"*  c #041119",
"=  c #041218",
"-  c #151315",
";  c #161719",
":  c #031C2B",
">  c #071625",
",  c #191D27",
"<  c #001E32",
"1  c #070723",
"2  c #0C242D",
"3  c #07232A",
"4  c #022433",
"5  c #012A34",
"6  c #0D2936",
"7  c #032C3B",
"8  c #0B2E3C",
"9  c #082436",
"0  c #142A32",
"q  c #1A2839",
"w  c #01313C",
"e  c #0B333D",
"r  c #13303C",
"t  c #1C313A",
"y  c #29292A",
"u  c #29293C",
"i  c #242939",
"p  c #20343F",
"a  c #333636",
"s  c #591019",
"d  c #690A0D",
"f  c #670409",
"g  c #75080E",
"h  c #6C0B14",
"j  c #7D0311",
"k  c #750917",
"l  c #741013",
"z  c #5E142F",
"x  c #5F1E3C",
"c  c #550F27",
"v  c #7C0827",
"b  c #61122F",
"n  c #681D37",
"m  c #79172F",
"M  c #57212E",
"N  c #662227",
"B  c #68323E",
"V  c #6F2A3B",
"C  c #1A2F41",
"Z  c #053342",
"A  c #0C3443",
"S  c #033B44",
"D  c #0C3A46",
"F  c #0C3648",
"G  c #0C3948",
"H  c #143544",
"J  c #1E3445",
"K  c #133944",
"L  c #1B3944",
"P  c #113649",
"I  c #143B4C",
"U  c #1B3C4B",
"Y  c #183749",
"T  c #223441",
"R  c #2B3D45",
"E  c #243E4B",
"W  c #2B3D4B",
"Q  c #243648",
"!  c #363E4C",
"~  c #313E44",
"^  c #2B314C",
"/  c #6A3644",
"(  c #783942",
")  c #763542",
"_  c #6E2744",
"`  c #1C414C",
"'  c #144147",
"]  c #164351",
"[  c #1C4452",
"{  c #22434B",
"}  c #2B424D",
"|  c #294648",
" . c #244453",
".. c #2C4B55",
"X. c #264954",
"o. c #394A56",
"O. c #38535B",
"+. c #3A4348",
"@. c #434648",
"#. c #444E57",
"$. c #43525B",
"%. c #565858",
"&. c #74424B",
"*. c #4D5F69",
"=. c #55666F",
"-. c #646665",
";. c #766D70",
":. c #8A0001",
">. c #81000A",
",. c #89010A",
"<. c #820013",
"1. c #86011B",
"2. c #8D011C",
"3. c #850C13",
"4. c #91001E",
"5. c #950414",
"6. c #95000C",
"7. c #B6161B",
"8. c #AB071F",
"9. c #8E0224",
"0. c #860727",
"q. c #920223",
"w. c #950329",
"e. c #9B042B",
"r. c #980827",
"t. c #87162D",
"y. c #971A29",
"u. c #8A0D30",
"i. c #9B1433",
"p. c #9C1D35",
"a. c #931F34",
"s. c #9B0F32",
"d. c #A30625",
"f. c #A4182C",
"g. c #B41D22",
"h. c #A50B32",
"j. c #B41B32",
"k. c #B61639",
"l. c #AD1434",
"z. c #9A2636",
"x. c #85373C",
"c. c #9F232B",
"v. c #A2232C",
"b. c #BA252A",
"n. c #A62833",
"m. c #B7263A",
"M. c #E31B1D",
"N. c #C11A2B",
"B. c #EA1D25",
"V. c #CE303A",
"C. c #EB2125",
"Z. c #EE262A",
"A. c #EB3A3C",
"S. c #E5363A",
"D. c #F23B3B",
"F. c #FC383A",
"G. c #F42831",
"H. c #EF423E",
"J. c #F2413C",
"K. c #B82C44",
"L. c #DB2F42",
"P. c #ED3D43",
"I. c #E53B45",
"U. c #F53B43",
"Y. c #8F4F4F",
"T. c #9B4B4E",
"R. c #AC4058",
"E. c #9E6669",
"W. c #A47579",
"Q. c #BB6072",
"!. c #E74246",
"~. c #ED4144",
"^. c #EC424B",
"/. c #ED4A4F",
"(. c #F24244",
"). c #FE4445",
"_. c #F3444B",
"`. c #F7474B",
"'. c #F74D50",
"]. c #F44754",
"[. c #CC7377",
"{. c #E37B82",
"}. c #798288",
"|. c #899399",
" X c #908F93",
".X c #B5898B",
"XX c #959AA4",
"oX c #97A2A4",
"OX c #ADAEB4",
"+X c #D58493",
"@X c #E79797",
"#X c #C99BA4",
"$X c #CEA1A8",
"%X c #CFACAE",
"&X c #E2A9AC",
"*X c #B6BCC3",
"=X c #DACAC5",
"-X c #D4D8DC",
";X c #D8D7DC",
":X c #CED2D6",
">X c #F8DBD8",
",X c #FFE2DE",
"<X c #D0DAE3",
"1X c #FFDEE3",
"2X c #E9DEE6",
"3X c #E2E4EB",
"4X c #E4EBEF",
"5X c #EAE9EB",
"6X c #FEE6E3",
"7X c #FFE9ED",
"8X c #F9EBEA",
"9X c #E3ECF2",
"0X c #EBF8F9",
"qX c #FEF6F5",
"wX c #F4FBF6",
"eX c #FDF5FA",
"rX c #F3FCFD",
"tX c #FDFDFE",
"yX c #F6F7F9",
"uX c #EAF3EE",
/* pixels */
"                                                                                                    ",
"                                                                                                    ",
"                                                                                                    ",
"                                                                                                    ",
"                                                                                                    ",
"                                                                                                    ",
"                                          o                       O                                 ",
"                                        . . %.                  . .                                 ",
"                                      . . - %.                . +.X                                 ",
"                                    o . a . -.              X ! ~ X                                 ",
"                                  + O - O O -.            > p 0 R X                                 ",
"                                o . & o o . -.          , 0 } 6 R X                                 ",
"                              X > X.4 8 ` : ..*.*.=.$.: 9 K 4 K W .                                 ",
"                          #.X W [ : I Z 7 I 4 4 < 6 * U ` 7 ] 7 R X                                 ",
"                        X : O.e 4 [ F 8 I P 8 U U e X.e 5 ' 5 ' R X                                 ",
"                    #.X E U 7 A G w 7 F Z Z F Z A F 7 D e 7 D e | X                                 ",
"                  @.> ^ T t t T T J J J L T J J J J J J T J J Q W 1 XX                              ",
"                  r 7 F Z S S S w w w w w w w w w w w w w w w 7 w , s t.[.                          ",
"                N N ) / / ( V ( ( ( ( ( ( ( x.B ( ( ( ( ( ( ( ( ( x.b.g.5.a.&X                      ",
"            b.S.P.U.]._._.(.A.(.P.~.~.~.~.~.(.~.~.~.~.P.~.~.P.~.I.].'.S.m.r.y.                      ",
"            7.).`.D.P.P.A.A.A.~.(.(.~.(.(.(.(.(.(.~.(.(.(.P.(.(._.A.!.b.j.K.3.@X                    ",
"            b.).(.A.^.^.~.(._._.~.~.~.~.~.~.~.~.~.~.~.~.~.~.~.~.`.S.'.I.6.l.v.[.                    ",
"            7.F.J.(.(.~.H.D.A.S.H.~.H.(.A.~.H.~.H.~.~.(.~.~.P.~.S.`.P.L.l.k.,.{.                    ",
"            7.).J.~.P.I.`.(.!./.!.^.~.^.~.^.~.^.~.!.~.^.~.~.~.~.~.~._.L.d.m.3.@X                    ",
"            g.U.B.C.).A.C.B.M.Z.C.B.B.Z.`.Z.C.Z.C.Z.M.B.D.A.`.!.I.].U.L.d.h.l.R.&X                  ",
"            W.E.,X8X=X=X7X7X6X>X6X>X6X,X%X8X,X>X,X>X6X1XW.z / &./ ) z.L.l.k.d.4.h Y.                ",
"            oX}.0X0X| | <XtXyXtXrXrXrX}.X *XtXtXtXtXyXtX|.= e w 8 u n p.e.h.q.2.n.l x.              ",
"            oX|.tX-X. X ;XtXeXqXtXtXqX;.. OXqXtXqXtXqXtXOXX +.J A T _ u.9.9.w.s.9.n.g +X            ",
"              -.tXtX;X-XrXrXtXtXtXyXtX3X-X0XtXtXtXtXtXtX}.@ C C H i b v 9.e.w.w.9.f.f.h             ",
"              O 2XeXtXtXtXtXtXeXyXtXtXtXtXeXtXeXtXeXtX9X6 X.S S Z q n v w.q.q.2.r.j n.f             ",
"              .  X4XtXuXwXrXwXtXtX8X5XtXwXtXrXrXwXwXyX}.X W 6 H H i _ v 9.2.w.w.<.2.n.f $X          ",
"              * @ XX0XtXtXtXtXtX9X=.%.4XyXtXqXtXtXeXXX@ W Y 7 F K i n k r.4.w.w.e.4.s.v #X          ",
"              X | # $.*X3X3X:XOXr < > W |.;X3X;X*X$.= r U 9 Z P P u b u.w.2.w.9.w.2.v.g #X          ",
"              . R t 2 @ X # $ X r U P 3 $ $ # $ X q J H 7 7 I Z Z ^ b 0.w.q.q.9.9.2.v.d $X          ",
"              X | L L L E } J { e A K H Y E E Y Y Y 8 P ` e w F U > ) 0.j h.2.e.2.4.v.f $X          ",
"              X p 6 D K 7 A e e e A A A F A Z A U Y Z 7 A A e K 5 ! c v s.q.q.4.q.q.v.d             ",
"              @ } e e F P I A 7 A A F Z w w D D < Z U F 7 A K 5 X.q V u.1.w.q.w.w.2.n.d             ",
"              % R L 7 7 A F w I F A 8 8 K A e 7 [ 7 7 P I Y H H T + m r.<.h.1.e.q.2.c.d             ",
"                X 3 U A e G Z 7 A F P Y K Y Y U A P P Z 7 e 5 2 @   m 1.K.>.w.1.e.4.f.d             ",
"                  O.5 e A F e A G Z < < 9 9 9 < 7 Z F Z D A e O.      k f z.z.z.i.y.n.l             ",
"                      y O - - ; O #.              X } A e } .           T.g >.:.:.5.>.k             ",
"                      @.O & . - . %.              @ o.r e ..X                 .X.X.X.X.X            ",
"                      a . ; & , . %.              X { r K E X                                       ",
"                      y . O . . . %.              * 0 3 3 0 =                                       ",
"                                                                                                    ",
"                                                                                                    ",
"                                                                                                    ",
"                                                                                                    ",
"                                                                                                    ",
"                                                                                                    "
};
