/* XPM */
static char *_7de81bbedc34d10b4a6a16e5a6b23f62Pw5UHfOTOh44aQ4[] = {
/* columns rows colors chars-per-pixel */
"50 50 170 2 ",
"   c #423A23",
".  c #453D2B",
"X  c #474026",
"o  c #4C432D",
"O  c #50452F",
"+  c #4D4532",
"@  c #4F4835",
"#  c #4D4538",
"$  c #4F4939",
"%  c #514535",
"&  c #534A35",
"*  c #584D37",
"=  c #554D3A",
"-  c #594F3B",
";  c #5A5037",
":  c #57503C",
">  c #5B523D",
",  c #61563E",
"<  c #62583F",
"1  c #564E41",
"2  c #575040",
"3  c #5C5442",
"4  c #5F5844",
"5  c #5D5649",
"6  c #5F5949",
"7  c #615643",
"8  c #635A45",
"9  c #685D47",
"0  c #655D4A",
"q  c #6A5E4C",
"w  c #645D51",
"e  c #6A6046",
"r  c #67604D",
"t  c #6B624C",
"y  c #6F684E",
"u  c #71654D",
"i  c #72684F",
"p  c #676050",
"a  c #6C6452",
"s  c #6F6855",
"d  c #6F675A",
"f  c #6F6858",
"g  c #726653",
"h  c #736A55",
"j  c #796D55",
"k  c #716759",
"l  c #756C5A",
"z  c #7A6E5A",
"x  c #7C7154",
"c  c #77715C",
"v  c #7C725D",
"b  c #7F795F",
"n  c #776F62",
"m  c #7B6F61",
"M  c #777060",
"N  c #7D7562",
"B  c #7F7865",
"V  c #7D7568",
"C  c #7F7868",
"Z  c #817456",
"A  c #81765D",
"S  c #84795D",
"D  c #897D5E",
"F  c #827662",
"G  c #837A64",
"H  c #897D64",
"J  c #827968",
"K  c #817A68",
"L  c #827B68",
"P  c #827B6B",
"I  c #857A68",
"U  c #867B69",
"Y  c #837C6A",
"T  c #847C69",
"R  c #857D68",
"E  c #857D6B",
"W  c #877C6A",
"Q  c #857E6B",
"!  c #877F6B",
"~  c #81796C",
"^  c #827A6D",
"/  c #867D6C",
"(  c #877F6D",
")  c #847C6F",
"_  c #867D6E",
"`  c #877E6F",
"'  c #857D6B",
"]  c #887F6E",
"[  c #8A7E6A",
"{  c #867E71",
"}  c #8C8265",
"|  c #87806D",
" . c #87806D",
".. c #888069",
"X. c #88806B",
"o. c #8C816B",
"O. c #88816E",
"+. c #89826F",
"@. c #8B836E",
"#. c #8D826E",
"$. c #8B826C",
"%. c #8F886E",
"&. c #918265",
"*. c #90866D",
"=. c #91856C",
"-. c #94896D",
";. c #9A8D6F",
":. c #8A8371",
">. c #8B8472",
",. c #8E8671",
"<. c #8D8572",
"1. c #8D8673",
"2. c #8F8772",
"3. c #8B8474",
"4. c #8D8475",
"5. c #8F8774",
"6. c #8E8777",
"7. c #8D8572",
"8. c #8E8872",
"9. c #8F8974",
"0. c #908571",
"q. c #918674",
"w. c #918672",
"e. c #968C73",
"r. c #918974",
"t. c #908875",
"y. c #928A77",
"u. c #948C77",
"i. c #948B74",
"p. c #998D75",
"a. c #948679",
"s. c #918879",
"d. c #938A79",
"f. c #92897A",
"g. c #958D78",
"h. c #968E79",
"j. c #948D7A",
"k. c #968E7B",
"l. c #958D7A",
"z. c #988F7E",
"x. c #9A8E79",
"c. c #969076",
"v. c #9C9175",
"b. c #97907C",
"n. c #9B907A",
"m. c #98927C",
"M. c #9B927C",
"N. c #A29377",
"B. c #A1947C",
"V. c #969082",
"C. c #9C9382",
"Z. c #9C9481",
"A. c #9C9582",
"S. c #9F9885",
"D. c #9F9888",
"F. c #A39781",
"G. c #A09881",
"H. c #A19984",
"J. c #A49C87",
"K. c #A49A84",
"L. c #AA9D85",
"P. c #A49D8A",
"I. c #A99D8A",
"U. c #AAA085",
"Y. c #ABA18A",
"T. c #B0A58F",
"R. c #A9A091",
"E. c #B1A690",
"W. c #B5A993",
"Q. c #B9AE98",
/* pixels */
"a J l s.4.{ a L Z.N a v i.s l s.n.0.#.7 q p l k g l J ; J %.e.%.J 3 F ..v v l k k 3 ..8.q.M.s.) N p ",
"0 ! k l k v 8 l c N j l c 0 s C.u.h.i.r 0 a a z f v { p a h v j l 6 H  .H G U q.H 8 i.A.J.G.A.z.h.B ",
"o 0 t 3 3 p 8 = = 3 4 = & > = 3 8 2 0 8 r l 0 3 = 1 1 # 1 3 2 0 6 2 N l M F U ( v 4 R B v A A v ..h ",
"B  .B N 3 L ) O.! 8 @.h.,.! k l V 3 M M N ) C 0 d { V C { V l V N 2 s  .@.U U F p + 4 > 7 9 t q a > ",
"s N f l 3 a r v B 3 N 8.( F L ] M 2 a s r a d 4 r N L c f a a r 5 + 5 M l l v J 0 4 M B a 3 & 7 4 & ",
"2 2 $ = 8 5 0 8 3 4 @ > = 2 3 2 2 > 4 8 2 @ = : 3 8 = + 3 3 = 2 p p 5 2 3 r 4 & = $ 4 r a r = = 3 3 ",
"c f 5 n C 3.3.C Y 4.B O.B l 0 w 6.m.j.>.C 0 l >.H >.l l i.Y 0 N C 3.s.^ l 5 a R v ....y z B Y ,.3 w ",
"C ) 6 M 3. .) 6.>.B C N B N w 0 H J B B ,.k j.C.G [ v c 4.V.k N ) N O.O.Y r R u.b -.c.h F l v 8.w V ",
"V N 6 a ( U L :.I F Z j u j q q S h c v N 7 =.z.G G t g a.a.N q l g h u t > y L S v =.r g k ^ F + v ",
"N l p 6 a l z v g q k g r p 3 3 j z l B ! q g :.H v l t C.:.t 0 d a g y t > r N j j k @ a l z m @ l ",
"3 0 3 : > o O o = = - 2 3 + . = 3 7 a l r = - 0 k j 8 O v N = + = 4 0 4 = + & 2 > > 2 @ 2 3 8 0 = 3 ",
" .8 0 u.N.p.-.=.8 G B.a.h s.P.j.{ f.B $ N i.[ k @ c N v x x k k N a 2 # r @.i.,.r.+.!  .:.N v > t Y ",
"+.c v v.-.v.=.L.j F S n.F F i.i.=.B.M.0 0.F.F.=.k k [ x.M.B.I.B.K.L.h.j z a.B.F.B.T.L.J.Y.H.F.F c i.",
"h 8 e v.=.=.G F g 9 j H 8 ; ..+.o.I v 7 y z z F g % 9 j h F [ F A H F 8 , j Z Z u u q j J U ,.h 3 s ",
": > & > 9 z h t 0 r 8 3 * = 4 4 > * , 3 = = q q 8 & 3 7 % - * & & , 8 > 7 q - = - & 7 > = $ > % & > ",
"V : ..M.x.G 3 h.C.D.C.A.m.S.M 6 p.h.,.n.s.5 = f.,.U ( k z = 8 g A H h.A.C.z.z t K.H.h.2 a C N ( ..B ",
"4.c } M.M.8.h K.U.U.T.B.-.m...e &.-.N.v.B.B., ..o.p.a.g [ q q [ =.F &.=.v.-.h x N.&.Z - N e...=.G G ",
"a e t a @.y e -.v.v.} -.} i.B 4 h j v =.,.v 0 H v.p.J z a.q 8 q.o.S =.D i h 0 > A j - % l c l l h q ",
"= & * : 8 = j c.%.v.-.N.v.B.v o 8 > ; 0 8 @ = p a 3 $ 1 2 + + p h 8 0 e O & ; - 7 .   + 0 p p p q g ",
"o.0.! ( d 8 e } } } S -.;.c.b h 8.@.>.s = r a a u j { ,.M N N N r 4 & = i v } e.[ F J z s 6 2 l 7 g ",
"w.B.F.P.R.m.0 S x } i Z x *.v v 9.%.J.,.0 ..x.i.p.B.K.U.E.Q.R.E.Y.Y.C : [ L.W.W.Y.I.L.z.0.h 8 q.7 l ",
"F v v N y.6.e x x i e Z x y ; > h B H A 0 t z [ x x i i A p.v.B.S.U.j.4 z [ e.[ e.[ A =.G 8 q [ 8 k ",
"q > > & ; > t j e } Z Z e h N l > r 8 r t y g q y v G j ; ; - , * 8 k 3 0 8 > 9 8 7 9 8 > X > r = 3 ",
"= r i v v y c i : v.v.;.j v b.f.M.0 a A.J.h.h.g x u.M.M.u.H r v *.c.n.( ^ N l p.a.L.i.0 v z 0 r 0 2 ",
"= [ B.N.x.a.N.&.> 3 a r 2 = a a h 0 7 z t a 0 - 3 m k l N J 8 j =.G A G A j i -.-.x v 8 8 N H B B M ",
"3 ..e.=.p.B.w.&.u y b G B 0 * ; y h k 8 > * = p a 7 r 4 a j j i h 8 - - t < * u t k p a k w 4 8 l a ",
"5 Y %.-.K.L.[ =.g c c.u.M.i.h l u.v.M.p.r.t l p.o.=.e.e $.-.p.p.[ A j A [ u 8 I c.m.J.S.P.z.4 c i.:.",
"2 N -.} p.H =.F.z 3 7 7 j N 8 3 j h h ..A 8 h z t e j & 4 < , < , 7 8 8 < , O & 8 8 8 > 8 4 & 3 f p ",
"8 S &.D &.[ N.L.a 7 g 0 = q l l j h 8 & 7 0 i e e e y 4 * h c v v N G l 0 #.F F > r 0.a.F z z m N l ",
"7 A S H D -.N.H y v r.H q N h...H #.F - [ G.p.p.*.M.m.O.0 6.h.>.M.h.Z.r.0 B B @.v h v.x.e.c.a.i.i.#.",
"8 F [ A q a u u = 3 y h > ; = : ; 3 8 @ a t 8 > > ; r s o & 3 o * > y k = 3 0 0 ; .   & 8 e e < > = ",
"h.F.H.{ J q q j 3 p k n V ^ k ( u.,.#.4.r r -...H ..G B >.B B F ..r 0 q.G.u.m.A.V.V.m.@.N k 3 k c B ",
"[ [ I A h.J t u > F B c J B ] ] 8.+.! M 3 r.p.$.=.-.v.p.-.v.c.-.-.y a %.8.u.v.N.F.M.F.a.q.( a M.K.p.",
"A k l z A.j 8 u ; h c s c l l j l s a a = j H S F v x x v.-.} S F 4 j y.F A } H S H A A [ F 7 s.#.F ",
"0 g F _ ,.r > 8 ; r r r 0 r g g s a e 8 o * y t ; ; 8 x H u , 0 3 & l m.,.G } =.&.&.D Z A A 7 h r 8 ",
"l k 7 l k l h 8 4 8 & 4 p a w 8 6 : 4 b F v F A A j i 0 * l J l N 0 0 B N A H &.;.p.;.D j i 9 u t y ",
"q.N 0 B Y >.,.,.+.N ; l i.j.m.n.x.g r %.c.v.n.I.K.c.B.p.q ( h.h.i.l s b.....I A ..*.%.F v t t r.r.p.",
"l p = r N c a y h a ; l ( J N v N 9 8 a i k j v v A v h > M l 0 c r : M R +.G v b v j j t > ; a y i ",
"q g a 0 > 3 t g S v h r - 9 8 > , 7 u u > * e 0 < < * 0 7 0 y g = h c b v h v ] k 0 3 a k v z a r > ",
"F v J v > v r.=.i.i.a.l > w.w.A j z F ] N 8 H ..G v q N :.@.i.J 4 B @.O.8.C :.F B h ; u G [ A H B 0 ",
"0 3 3 3 3 3 8 8 4 0 ; 2 : : 4 = > > ; & @ = 8 0 0 4 = - 3 0 - = > 3 = 2 2 1 6 $ 3 0 7 a z k a r : > ",
"j.j M ! ( Y B 3 3 a l B  .Y M > > t r i l F H b H ..z c q % G e.m.j.( ( s.D.C.r r u.G.K.M.Z.n.4 a F ",
",.0 t t a h l = > a k l v N Y 8 l u.-.-.-.v.v.&.%.M.v.p.=.e N.e.c.M.M.m.A.m.A.l v v.x.B.p.=.u.t v 0.",
"s > c v c 3 0 ( k l k 0 3 & r > 0 e.;.} D =.p.-.p.%.-.H =.e H =.e.e.x...c Y A.j e e.H S H H o.e F ! ",
"0 8 4.,.i.c a i.] { :.L N 0 v v 9 v.&.S h F F G A A j j =.h A [ S } ....c.M.u.y & D H A } &.A > z l ",
"0 o > t a ; o > 7 3 2 0 0 @ 0 h t e.} A j z F m a h A j =.j 7 0 e y 9 9 t t t y , 9 , , e u q O 3 0 ",
"p 4 0 B J J ( N 3 0.x.@.@.@.v ; z i.H I I A F v z q A A -.y r 8.M.x.G.%.& k Z.m.F.,.r g v ! u.[ r t ",
"z. .a n.M.s.h.U h x.M.M.M.0.! s g F j Z F j S A F F Z H *.< F j.r.,.[ N 4 R m.j.s.i.a ( C.! i.h.y.8.",
"[ a M M.M.u...B a l s j v s e 4 3 r a k v H } H } Z x } x 8 r l g g k q 1 a ] N F J a a R Y J H F R ",
"0 & : s s l p 8 2 3 + & : : : @ $ 4 4 r h u e e ; & O > : o + : 7 2 5 3 # 3 g a 0 a : @ 3 > 8 t r 8 "
};
